<?xml version="1.0" encoding="utf-8"?>
<!-- Generator: Adobe Illustrator 16.0.0, SVG Export Plug-In . SVG Version: 6.00 Build 0)  -->
<!DOCTYPE svg PUBLIC "-//W3C//DTD SVG 1.1//EN" "http://www.w3.org/Graphics/SVG/1.1/DTD/svg11.dtd">
<svg version="1.1" id="Layer_1" xmlns="http://www.w3.org/2000/svg" xmlns:xlink="http://www.w3.org/1999/xlink" x="0px" y="0px"
	 width="192px" height="192px" viewBox="0 0 192 192" enable-background="new 0 0 192 192" xml:space="preserve">
<path fill="#333333" stroke="#FFFFFF" stroke-width="5" stroke-miterlimit="10" d="M171.612,160.701c0,6.627-5.373,12-12,12H31.611
	c-6.628,0-12-5.373-12-12v-128c0-6.627,5.372-12,12-12h128.001c6.627,0,12,5.373,12,12V160.701z"/>
<g>
	<path fill="none" d="M133.81,85.29l10.165-5.73l-15.027-26.659c-2.647-4.697-8.151-6.63-12.269-4.309L64.545,77.979H121.7
		C126.807,77.979,131.283,80.908,133.81,85.29z"/>
	<path fill="none" d="M71.186,134.29c2.648,4.697,8.151,6.631,12.27,4.311l12.931-7.289h-26.88L71.186,134.29z"/>
	<path fill="none" d="M66.208,137.097l-3.261-5.785H39.987v4.697c0,5.393,3.845,9.779,8.571,9.779H121.7
		c4.727,0,8.571-4.387,8.571-9.779v-4.697h-22.248L86.26,143.579C79.397,147.446,70.403,144.54,66.208,137.097z"/>
	<path fill="none" d="M45.148,84.505c-3.034,1.507-5.161,4.957-5.161,8.965v30.603h18.88L45.32,100.038
		C42.437,94.925,42.56,88.979,45.148,84.505z"/>
	<polygon fill="none" points="79.745,124.073 109.227,124.073 130.271,112.21 130.271,95.592 	"/>
	<path fill="none" d="M135.986,108.989l11.184-6.305c4.118-2.322,5.313-8.03,2.666-12.727l-2.307-4.093l-11.594,6.535
		c0.022,0.356,0.051,0.709,0.051,1.071V108.989z"/>
	<path fill="none" d="M49.271,94.726c0.628-0.688,1.523-1.129,2.526-1.129h13.524c1.891,0,3.429,1.538,3.429,3.428v5.43
		c0,1.891-1.538,3.428-3.429,3.428H55.172l10.152,18.012l63.523-35.807c-1.536-2.644-4.164-4.394-7.147-4.394H54.408l-1.445,0.814
		C49.558,86.427,48.158,90.663,49.271,94.726z"/>
	<polygon fill="none" points="130.271,124.073 130.271,118.771 120.863,124.073 	"/>
	<path fill="none" d="M65.321,103.597c0.63,0,1.143-0.514,1.143-1.143v-5.43c0-0.628-0.513-1.142-1.143-1.142H51.797
		c-0.63,0-1.143,0.514-1.143,1.142v0.842l3.23,5.73H65.321z"/>
	<path fill="#FFFFFF" d="M68.75,102.454v-5.43c0-1.89-1.538-3.428-3.429-3.428H51.797c-1.003,0-1.898,0.441-2.526,1.129
		c0.233,0.852,0.569,1.695,1.027,2.507l0.356,0.633v-0.842c0-0.628,0.513-1.142,1.143-1.142h13.524c0.63,0,1.143,0.514,1.143,1.142
		v5.43c0,0.629-0.513,1.143-1.143,1.143H53.884l1.289,2.285h10.149C67.212,105.882,68.75,104.345,68.75,102.454z"/>
	<path fill="#FFFFFF" d="M154.813,87.153l-20.888-37.058c-4.194-7.441-13.19-10.349-20.052-6.481L52.91,77.979h11.636l52.133-29.386
		c4.117-2.322,9.621-0.389,12.269,4.309l15.027,26.659l-10.165,5.73c1.205,2.091,1.961,4.511,2.126,7.109l11.594-6.535l2.307,4.093
		c2.647,4.697,1.452,10.405-2.666,12.727l-11.184,6.305v6.559l13.99-7.885C156.839,103.794,159.008,94.593,154.813,87.153z"/>
	<path fill="#FFFFFF" d="M135.936,92.399c-0.165-2.598-0.921-5.018-2.126-7.109c-2.526-4.382-7.003-7.312-12.109-7.312H64.545H52.91
		h-4.351c-7.877,0-14.286,6.95-14.286,15.492v42.538c0,8.543,6.408,15.492,14.286,15.492H121.7c7.877,0,14.286-6.949,14.286-15.492
		v-20.461v-6.559V93.471C135.986,93.109,135.958,92.755,135.936,92.399z M130.271,136.009c0,5.393-3.845,9.779-8.571,9.779H48.559
		c-4.727,0-8.571-4.387-8.571-9.779v-4.697h22.959h6.559h26.88h11.638h22.248V136.009z M130.271,118.771v5.303h-9.408h-11.637
		H79.745H58.867h-18.88V93.471c0-4.009,2.127-7.458,5.161-8.965c1.046-0.52,2.198-0.812,3.41-0.812h5.85H121.7
		c2.983,0,5.611,1.75,7.147,4.394c0.898,1.545,1.424,3.395,1.424,5.384v2.122v16.618V118.771z"/>
	<path fill="#FFFFFF" d="M51.797,103.597c-0.63,0-1.143-0.514-1.143-1.143v-4.588l-0.356-0.633
		c-0.458-0.812-0.794-1.656-1.027-2.507c-0.555,0.609-0.902,1.412-0.902,2.298v5.43c0,1.891,1.538,3.428,3.429,3.428h3.375
		l-1.289-2.285H51.797z"/>
</g>
</svg>
