<?xml version="1.0" encoding="utf-8"?>
<!-- Generator: Adobe Illustrator 16.0.0, SVG Export Plug-In . SVG Version: 6.00 Build 0)  -->
<!DOCTYPE svg PUBLIC "-//W3C//DTD SVG 1.1//EN" "http://www.w3.org/Graphics/SVG/1.1/DTD/svg11.dtd">
<svg version="1.1" id="Layer_1" xmlns="http://www.w3.org/2000/svg" xmlns:xlink="http://www.w3.org/1999/xlink" x="0px" y="0px"
	 width="192px" height="192px" viewBox="0 0 192 192" enable-background="new 0 0 192 192" xml:space="preserve">
<path fill="#333333" stroke="#FFFFFF" stroke-width="5" stroke-miterlimit="10" d="M171.982,160.189c0,6.627-5.373,12-12,12H31.981
	c-6.628,0-12-5.373-12-12v-128c0-6.627,5.372-12,12-12h128.001c6.627,0,12,5.373,12,12V160.189z"/>
<path fill="#FFFFFF" d="M147.731,76.872l-9.834-9.836c-3.52,3.055-8.85,2.919-12.193-0.427c-3.346-3.346-3.482-8.674-0.426-12.191
	l-9.838-9.837c-3.516,3.056-8.846,2.92-12.189-0.425c-0.09-0.092-0.172-0.19-0.258-0.286l-58.989,58.989
	c0.096,0.088,0.194,0.168,0.286,0.26c3.496,3.494,3.496,9.164,0,12.66c-0.156,0.156-0.32,0.297-0.485,0.439l9.838,9.836
	c0.142-0.164,0.283-0.328,0.438-0.482c3.496-3.498,9.166-3.498,12.663,0c3.497,3.496,3.497,9.166,0,12.66
	c-0.155,0.158-0.319,0.299-0.485,0.439l9.838,9.838c0.143-0.164,0.283-0.326,0.439-0.484c3.496-3.496,9.166-3.496,12.662,0.002
	l58.961-58.963C144.813,85.719,144.677,80.39,147.731,76.872z M107.829,77.698l5.92-4.417l-0.096,7.385l6.029,4.266l-7.049,2.191
	l-2.193,7.053l-4.266-6.031l-7.385,0.095l4.418-5.918l-2.371-6.993L107.829,77.698z M82.745,121.869l-4.266-6.029l-7.383,0.096
	l4.416-5.922l-2.371-6.988l6.994,2.369l5.919-4.42l-0.096,7.389l6.031,4.264l-7.052,2.191L82.745,121.869z M110.509,111.652
	L80.39,81.533l2.205-2.204l30.117,30.12L110.509,111.652z"/>
</svg>
