<?xml version="1.0" encoding="utf-8"?>
<!-- Generator: Adobe Illustrator 16.0.0, SVG Export Plug-In . SVG Version: 6.00 Build 0)  -->
<!DOCTYPE svg PUBLIC "-//W3C//DTD SVG 1.1//EN" "http://www.w3.org/Graphics/SVG/1.1/DTD/svg11.dtd">
<svg version="1.1" id="Layer_1" xmlns="http://www.w3.org/2000/svg" xmlns:xlink="http://www.w3.org/1999/xlink" x="0px" y="0px"
	 width="192px" height="192px" viewBox="0 0 192 192" enable-background="new 0 0 192 192" xml:space="preserve">
<path fill="#333333" stroke="#FFFFFF" stroke-width="5" stroke-miterlimit="10" d="M172.583,160c0,6.627-5.373,12-12,12h-128
	c-6.627,0-12-5.373-12-12V32c0-6.627,5.373-12,12-12h128c6.627,0,12,5.373,12,12V160z"/>
<path fill="#FFFFFF" d="M134.227,87.774h-9.924v-9.195c0-0.479-0.051-0.944-0.146-1.396c5.784-2.006,9.944-7.486,9.944-13.952
	c0-8.16-6.617-14.776-14.776-14.776c-3.33,0-6.39,1.115-8.859,2.973c-4.228-6.723-12.608-11.309-22.271-11.309
	c-10.423,0-19.365,5.333-23.196,12.93c-7.259,0.475-12.984,5.862-12.984,12.457c0,5.978,4.71,10.973,11,12.203
	c-0.036,0.288-0.087,0.571-0.087,0.87v66.481c0,3.771,3.053,6.819,6.82,6.819h47.736c3.77,0,6.818-3.049,6.818-6.819v-9.193h9.924
	c3.822,0,6.926-3.104,6.926-6.926V94.699C141.152,90.876,138.05,87.774,134.227,87.774z M83.293,140.143h-5.302V90.685h5.302
	V140.143z M96.885,140.143h-5.302V90.685h5.302V140.143z M110.477,140.143h-5.304V90.685h5.304V140.143z M136.533,125.654
	c0,3.086-2.506,5.596-5.594,5.596h-6.639V92.393h6.639c3.088,0,5.594,2.506,5.594,5.593V125.654z"/>
</svg>
