<?xml version="1.0" encoding="iso-8859-1"?>
<!-- Generator: Adobe Illustrator 16.0.0, SVG Export Plug-In . SVG Version: 6.00 Build 0)  -->
<!DOCTYPE svg PUBLIC "-//W3C//DTD SVG 1.1//EN" "http://www.w3.org/Graphics/SVG/1.1/DTD/svg11.dtd">
<svg version="1.1" id="Layer_1" xmlns="http://www.w3.org/2000/svg" xmlns:xlink="http://www.w3.org/1999/xlink" x="0px" y="0px"
	 width="192px" height="192px" viewBox="0 0 192 192" style="enable-background:new 0 0 192 192;" xml:space="preserve">
<path style="fill:#333333;" d="M172.583,160c0,6.627-5.373,12-12,12h-128c-6.627,0-12-5.373-12-12V32c0-6.627,5.373-12,12-12h128
	c6.627,0,12,5.373,12,12V160z"/>
<path style="fill:#FFFFFF;" d="M134.226,87.774h-9.923v-9.195c0-0.479-0.051-0.944-0.146-1.396
	c5.784-2.006,9.944-7.486,9.944-13.952c0-8.16-6.616-14.776-14.776-14.776c-3.33,0-6.39,1.115-8.859,2.973
	c-4.228-6.723-12.609-11.309-22.271-11.309c-10.423,0-19.365,5.333-23.196,12.93c-7.259,0.475-12.984,5.862-12.984,12.457
	c0,5.978,4.71,10.973,11,12.203c-0.036,0.288-0.087,0.571-0.087,0.87v66.482c0,3.771,3.053,6.82,6.82,6.82h47.737
	c3.769,0,6.818-3.049,6.818-6.82v-9.194h9.923c3.824,0,6.927-3.104,6.927-6.926V94.699C141.152,90.876,138.05,87.774,134.226,87.774
	z M83.293,140.143h-5.302V90.685h5.302V140.143z M96.885,140.143h-5.302V90.685h5.302V140.143z M110.477,140.143h-5.304V90.685
	h5.304V140.143z M136.533,125.655c0,3.085-2.506,5.595-5.593,5.595h-6.638V92.393h6.638c3.087,0,5.593,2.506,5.593,5.594V125.655z"
	/>
</svg>
