<?xml version="1.0" encoding="utf-8"?>
<!-- Generator: Adobe Illustrator 16.0.0, SVG Export Plug-In . SVG Version: 6.00 Build 0)  -->
<!DOCTYPE svg PUBLIC "-//W3C//DTD SVG 1.1//EN" "http://www.w3.org/Graphics/SVG/1.1/DTD/svg11.dtd">
<svg version="1.1" id="Layer_1" xmlns="http://www.w3.org/2000/svg" xmlns:xlink="http://www.w3.org/1999/xlink" x="0px" y="0px"
	 width="24px" height="24px" viewBox="0 0 24 24" enable-background="new 0 0 24 24" xml:space="preserve">
<path fill="#73879C" d="M4,4h3l2-2h6l2,2h3c1.104,0,2,0.896,2,2v12c0,1.104-0.896,2-2,2H4c-1.104,0-2-0.896-2-2V6
	C2,4.896,2.896,4,4,4 M12,7c-2.761,0-5,2.239-5,5c0,2.762,2.239,5,5,5c2.762,0,5-2.238,5-5C17,9.239,14.762,7,12,7 M12,9
	c1.656,0,3,1.343,3,3c0,1.656-1.344,3-3,3c-1.657,0-3-1.344-3-3C9,10.343,10.343,9,12,9z"/>
</svg>
