<?xml version="1.0" encoding="utf-8"?>
<!-- Generator: Adobe Illustrator 16.0.0, SVG Export Plug-In . SVG Version: 6.00 Build 0)  -->
<!DOCTYPE svg PUBLIC "-//W3C//DTD SVG 1.1//EN" "http://www.w3.org/Graphics/SVG/1.1/DTD/svg11.dtd">
<svg version="1.1" id="Layer_1" xmlns="http://www.w3.org/2000/svg" xmlns:xlink="http://www.w3.org/1999/xlink" x="0px" y="0px"
	 width="192px" height="192px" viewBox="0 0 192 192" enable-background="new 0 0 192 192" xml:space="preserve">
<path fill="#333333" stroke="#FFFFFF" stroke-width="5" stroke-miterlimit="10" d="M172.584,159.591c0,6.627-5.373,12-12,12H32.582
	c-6.628,0-12-5.373-12-12V31.59c0-6.627,5.372-12,12-12h128.002c6.627,0,12,5.373,12,12V159.591z"/>
<polygon fill="#FFFFFF" points="52.312,139.542 34.925,109.428 52.642,105.314 64.684,126.171 "/>
<path fill="#FFFFFF" d="M158.031,127.746h-19.883h-11.662c-3.738,0-6.771-3.031-6.771-6.77v-5.479
	c4.109-1.253,7.101-5.072,7.101-9.593c0-2.618-1.012-4.995-2.654-6.782l25.293-14.605c4.148-2.396,5.568-7.701,3.174-11.849
	l-9.639-16.692c-2.396-4.147-7.699-5.568-11.848-3.174L60.203,93.764c-4.146,2.396-5.569,7.7-3.174,11.847l9.638,16.693
	c2.395,4.147,7.701,5.569,11.849,3.174l28.697-16.569c1.049,3.343,3.803,5.924,7.238,6.743v9.838c0,3.736,3.031,6.769,6.77,6.769
	h17.031l17.332,0.001c0.873-0.001,1.697-0.182,2.463-0.482C158.309,130.445,158.303,129.075,158.031,127.746z"/>
</svg>
