<?xml version="1.0" encoding="iso-8859-1"?>
<!-- Generator: Adobe Illustrator 16.0.0, SVG Export Plug-In . SVG Version: 6.00 Build 0)  -->
<!DOCTYPE svg PUBLIC "-//W3C//DTD SVG 1.1//EN" "http://www.w3.org/Graphics/SVG/1.1/DTD/svg11.dtd">
<svg version="1.1" id="Layer_1" xmlns="http://www.w3.org/2000/svg" xmlns:xlink="http://www.w3.org/1999/xlink" x="0px" y="0px"
	 width="192px" height="192px" viewBox="0 0 192 192" style="enable-background:new 0 0 192 192;" xml:space="preserve">
<path style="fill:#302681;" d="M172.791,159.999c0,6.627-5.373,12.001-12,12.001h-128c-6.628,0-12-5.374-12-12.001v-128
	c0-6.627,5.372-12,12-12h128c6.627,0,12,5.373,12,12V159.999z"/>
<path style="fill:#FFFFFF;" d="M69.187,70.271V51.984h-8.271v18.286c-4.913,1.712-8.443,6.373-8.443,11.869
	c0,5.497,3.531,10.157,8.443,11.869v45.857h8.271V94.008c4.912-1.712,8.443-6.373,8.443-11.869
	C77.63,76.643,74.099,71.982,69.187,70.271z M69.187,86.034c-1.037,1.101-2.504,1.792-4.135,1.792c-1.632,0-3.099-0.691-4.136-1.792
	c-0.959-1.018-1.551-2.386-1.551-3.895s0.592-2.876,1.551-3.895c1.037-1.101,2.504-1.792,4.136-1.792
	c1.631,0,3.099,0.69,4.135,1.792c0.959,1.018,1.551,2.386,1.551,3.895S70.146,85.016,69.187,86.034z"/>
<path style="fill:#FFFFFF;" d="M101.281,95.428V51.984h-8.272v43.444c-4.912,1.712-8.443,6.373-8.443,11.869
	s3.531,10.156,8.443,11.869v20.699h8.272v-20.699c4.912-1.713,8.443-6.373,8.443-11.869S106.193,97.141,101.281,95.428z
	 M101.281,111.191c-1.037,1.102-2.504,1.792-4.137,1.792c-1.631,0-3.098-0.69-4.135-1.792c-0.959-1.018-1.551-2.385-1.551-3.895
	s0.592-2.877,1.551-3.895c1.037-1.102,2.504-1.791,4.135-1.791c1.633,0,3.1,0.689,4.137,1.791c0.959,1.018,1.551,2.385,1.551,3.895
	S102.24,110.174,101.281,111.191z"/>
<path style="fill:#FFFFFF;" d="M133.374,57.691v-5.707h-8.271v5.707c-4.912,1.712-8.443,6.373-8.443,11.869
	s3.531,10.156,8.443,11.869v58.436h8.271V81.429c4.913-1.712,8.443-6.373,8.443-11.869S138.287,59.404,133.374,57.691z
	 M133.374,73.455c-1.036,1.101-2.504,1.792-4.136,1.792c-1.631,0-3.099-0.691-4.135-1.792c-0.959-1.018-1.552-2.385-1.552-3.895
	s0.593-2.877,1.552-3.895c1.036-1.101,2.504-1.792,4.135-1.792c1.632,0,3.1,0.691,4.136,1.792c0.959,1.018,1.551,2.385,1.551,3.895
	S134.333,72.438,133.374,73.455z"/>
</svg>
