<?xml version="1.0" encoding="utf-8"?>
<!-- Generator: Adobe Illustrator 16.0.0, SVG Export Plug-In . SVG Version: 6.00 Build 0)  -->
<!DOCTYPE svg PUBLIC "-//W3C//DTD SVG 1.1//EN" "http://www.w3.org/Graphics/SVG/1.1/DTD/svg11.dtd">
<svg version="1.1" id="Layer_1" xmlns="http://www.w3.org/2000/svg" xmlns:xlink="http://www.w3.org/1999/xlink" x="0px" y="0px"
	 width="192px" height="192px" viewBox="0 0 192 192" enable-background="new 0 0 192 192" xml:space="preserve">
<path fill="#333333" stroke="#FFFFFF" stroke-width="5" stroke-miterlimit="10" d="M173.152,160c0,6.627-5.373,12-12,12h-128
	c-6.628,0-12-5.373-12-12V32c0-6.627,5.372-12,12-12h128c6.627,0,12,5.373,12,12V160z"/>
<circle fill="#FFFFFF" cx="97.359" cy="83.069" r="9.661"/>
<path fill="#FFFFFF" d="M118.824,113.63c-1.242-10.755-10.375-19.107-21.465-19.107c-11.087,0-20.221,8.352-21.463,19.107H118.824z"
	/>
<path fill="#FFFFFF" d="M151.357,86.076c-0.765,0-1.502,0.116-2.195,0.33l-19.996-34.633c1.214-1.324,1.96-3.082,1.96-5.019
	c0-4.111-3.332-7.443-7.442-7.443c-3.539,0-6.496,2.476-7.25,5.789H77.555c-0.752-3.313-3.71-5.788-7.25-5.788
	c-4.11,0-7.442,3.331-7.442,7.442c0,2.173,0.938,4.123,2.423,5.482l-19.728,34.17c-0.694-0.214-1.432-0.331-2.196-0.331
	c-4.109,0-7.442,3.332-7.442,7.442s3.333,7.442,7.442,7.442c0.765,0,1.502-0.117,2.196-0.331l19.728,34.171
	c-1.485,1.36-2.423,3.311-2.423,5.482c0,4.109,3.332,7.441,7.441,7.441c3.542,0,6.499-2.475,7.251-5.787h38.878
	c0.754,3.312,3.711,5.787,7.25,5.787c4.11,0,7.442-3.332,7.442-7.441c0-1.938-0.746-3.695-1.96-5.021l19.998-34.633
	c0.691,0.213,1.43,0.33,2.193,0.33c4.113,0,7.442-3.332,7.442-7.442C158.801,89.408,155.471,86.076,151.357,86.076z
	 M126.439,133.375c-0.854-0.341-1.78-0.533-2.756-0.533c-3.541,0-6.498,2.475-7.25,5.787H77.555
	c-0.752-3.311-3.709-5.787-7.251-5.787c-0.746,0-1.466,0.113-2.146,0.318l-19.74-34.191c1.464-1.359,2.386-3.295,2.386-5.45
	c0-2.155-0.922-4.091-2.386-5.45l19.741-34.191c0.679,0.205,1.399,0.317,2.146,0.317c3.541,0,6.498-2.475,7.25-5.788h38.878
	c0.754,3.313,3.711,5.788,7.25,5.788c0.977,0,1.902-0.192,2.756-0.532l19.865,34.406c-1.465,1.359-2.388,3.295-2.388,5.45
	c0,2.155,0.923,4.09,2.388,5.45L126.439,133.375z"/>
</svg>
