<?xml version="1.0" encoding="utf-8"?>
<!-- Generator: Adobe Illustrator 16.0.0, SVG Export Plug-In . SVG Version: 6.00 Build 0)  -->
<!DOCTYPE svg PUBLIC "-//W3C//DTD SVG 1.1//EN" "http://www.w3.org/Graphics/SVG/1.1/DTD/svg11.dtd">
<svg version="1.1" id="Layer_1" xmlns="http://www.w3.org/2000/svg" xmlns:xlink="http://www.w3.org/1999/xlink" x="0px" y="0px"
	 width="192px" height="192px" viewBox="0 0 192 192" style="enable-background:new 0 0 192 192;" xml:space="preserve">
<path style="fill:#333333;" d="M172.116,159.955c0,6.627-5.373,12-12,12h-128c-6.627,0-12-5.373-12-12v-128c0-6.627,5.373-12,12-12
	h128c6.627,0,12,5.373,12,12V159.955z"/>
<g>
	<circle style="fill:#FFFFFF;" cx="102.646" cy="69.875" r="6.301"/>
	<path style="fill:#FFFFFF;" d="M138.968,112.199H121.51v-10.148c0.333-1.223,0.331-2.592-0.096-3.943l-4.892-15.51h6.481
		l4.896,8.318c0.56,0.953,1.978,1.158,3.165,0.457c1.189-0.699,1.699-2.037,1.14-2.988l-5.214-8.859
		c-0.148-0.252-0.361-0.449-0.611-0.594c-0.557-0.785-1.644-1.328-2.91-1.328h-17.036c-0.819,0-1.56,0.23-2.139,0.604
		c-0.406,0.139-0.796,0.363-1.127,0.693l-9.946,9.947c-0.054,0.055-0.094,0.113-0.143,0.172L81.49,90.697
		c-1.397,0.201-2.369,1.473-2.171,2.836c0.197,1.365,1.489,2.309,2.887,2.105l13.004-1.883c1.092-0.158,1.913-0.971,2.132-1.967
		l5.04-5.039c0.015,0.049,0.024,0.1,0.04,0.148l4.502,14.271L96.601,124.23c-0.657,1.469,0,3.193,1.468,3.85
		c1.47,0.656,3.192,0,3.851-1.469l8.928-19.943c1.215,0.576,2.58,0.721,3.891,0.309l0.753-0.238v7.287
		c0,0.053,0.011,0.102,0.013,0.154c-0.08,0.26-0.135,0.529-0.135,0.814c0,1.543,1.251,2.795,2.794,2.795h20.806
		c1.543,0,2.794-1.252,2.794-2.795S140.511,112.199,138.968,112.199z"/>
</g>
<polygon style="fill:#FFFFFF;" points="59.679,136.967 59.679,54.939 113.574,54.939 113.574,46.152 50.471,46.152 50.471,145.756 
	113.574,145.756 113.574,136.967 "/>
</svg>
