<?xml version="1.0" encoding="utf-8"?>
<!-- Generator: Adobe Illustrator 16.0.0, SVG Export Plug-In . SVG Version: 6.00 Build 0)  -->
<!DOCTYPE svg PUBLIC "-//W3C//DTD SVG 1.1//EN" "http://www.w3.org/Graphics/SVG/1.1/DTD/svg11.dtd">
<svg version="1.1" id="Layer_1" xmlns="http://www.w3.org/2000/svg" xmlns:xlink="http://www.w3.org/1999/xlink" x="0px" y="0px"
	 width="192px" height="192px" viewBox="0 0 192 192" style="enable-background:new 0 0 192 192;" xml:space="preserve">
<path style="fill:#333333;" d="M172.583,159.824c0,6.627-5.373,12-12,12h-128c-6.627,0-12-5.373-12-12v-128c0-6.627,5.373-12,12-12
	h128c6.627,0,12,5.373,12,12V159.824z"/>
<g>
	<polygon style="fill:#FFFFFF;" points="61.964,136.837 61.964,54.81 115.858,54.81 115.858,46.022 52.756,46.022 52.756,145.626 
		115.858,145.626 115.858,136.837 	"/>
	<polygon style="fill:#FFFFFF;" points="140.41,90.736 92.756,90.736 112.902,70.592 106.701,64.392 75.289,95.803 106.701,127.215 
		112.902,121.016 92.756,100.87 140.41,100.87 	"/>
</g>
</svg>
