<?xml version="1.0" encoding="utf-8"?>
<!-- Generator: Adobe Illustrator 16.0.0, SVG Export Plug-In . SVG Version: 6.00 Build 0)  -->
<!DOCTYPE svg PUBLIC "-//W3C//DTD SVG 1.1//EN" "http://www.w3.org/Graphics/SVG/1.1/DTD/svg11.dtd">
<svg version="1.1" id="Layer_1" xmlns="http://www.w3.org/2000/svg" xmlns:xlink="http://www.w3.org/1999/xlink" x="0px" y="0px"
	 width="192px" height="192px" viewBox="0 0 192 192" enable-background="new 0 0 192 192" xml:space="preserve">
<path fill="#333333" stroke="#FFFFFF" stroke-width="5" stroke-miterlimit="10" d="M171.846,160.167c0,6.627-5.373,12-12,12H31.844
	c-6.628,0-12-5.373-12-12v-128c0-6.627,5.372-12,12-12h128.001c6.627,0,12,5.373,12,12V160.167z"/>
<g>
	<path fill="#FFFFFF" d="M151.248,115.296H40.237v0.492c-0.783,1.951-1.225,4.076-1.225,6.309c0,9.383,7.606,16.988,16.988,16.988
		c0.413,0,0.818-0.031,1.225-0.062v0.062h77.442c9.383,0,16.988-7.605,16.988-16.988c0-1.26-0.148-2.484-0.408-3.666V115.296z"/>
	<path fill="#FFFFFF" d="M158.594,104.47c0,3.268-2.648,5.918-5.918,5.918H39.013c-3.269,0-5.918-2.65-5.918-5.918l0,0
		c0-3.268,2.649-5.916,5.918-5.916h113.663C155.945,98.554,158.594,101.202,158.594,104.47L158.594,104.47z"/>
	<path fill="#FFFFFF" d="M151.248,80.146v-0.562h-0.102c-2.67-14.969-15.742-26.335-31.479-26.335H71
		c-17.666,0-31.987,14.321-31.987,31.987c0,2.851,0.394,5.605,1.094,8.234h111.142v-3.144c0.266-1.658,0.408-3.357,0.408-5.091
		S151.514,81.805,151.248,80.146z M70.169,78.621c-1.945,0-3.524-1.577-3.524-3.523c0-1.947,1.579-3.524,3.524-3.524
		c1.947,0,3.525,1.577,3.525,3.524C73.694,77.044,72.116,78.621,70.169,78.621z M83.273,65.354c-1.946,0-3.524-1.578-3.524-3.523
		c0-1.947,1.578-3.525,3.524-3.525s3.523,1.578,3.523,3.525C86.797,63.775,85.22,65.354,83.273,65.354z M95.884,78.621
		c-1.946,0-3.524-1.577-3.524-3.523c0-1.947,1.578-3.524,3.524-3.524s3.524,1.577,3.524,3.524
		C99.408,77.044,97.83,78.621,95.884,78.621z M109.152,65.354c-1.947,0-3.525-1.578-3.525-3.523c0-1.947,1.578-3.525,3.525-3.525
		s3.523,1.578,3.523,3.525C112.676,63.775,111.1,65.354,109.152,65.354z M121.928,78.621c-1.947,0-3.523-1.577-3.523-3.523
		c0-1.947,1.576-3.524,3.523-3.524c1.945,0,3.523,1.577,3.523,3.524C125.451,77.044,123.873,78.621,121.928,78.621z"/>
</g>
</svg>
