<?xml version="1.0" encoding="utf-8"?>
<!-- Generator: Adobe Illustrator 16.0.0, SVG Export Plug-In . SVG Version: 6.00 Build 0)  -->
<!DOCTYPE svg PUBLIC "-//W3C//DTD SVG 1.1//EN" "http://www.w3.org/Graphics/SVG/1.1/DTD/svg11.dtd">
<svg version="1.1" id="Layer_1" xmlns="http://www.w3.org/2000/svg" xmlns:xlink="http://www.w3.org/1999/xlink" x="0px" y="0px"
	 width="192px" height="192px" viewBox="0 0 192 192" enable-background="new 0 0 192 192" xml:space="preserve">
<path fill="#C2252C" stroke="#FFFFFF" stroke-width="5" stroke-miterlimit="10" d="M172.76,159.795c0,6.627-5.373,12-12,12H32.758
	c-6.628,0-12-5.373-12-12v-128c0-6.627,5.372-12,12-12H160.76c6.627,0,12,5.373,12,12V159.795z"/>
<path fill="#FFFFFF" d="M143.754,89.29v-9.766c0-2.434-1.973-4.406-4.404-4.406h-17.33v-14.99c0-2.434-1.975-4.406-4.406-4.406
	H75.904c-2.433,0-4.406,1.973-4.406,4.406v14.99H54.169c-2.433,0-4.406,1.973-4.406,4.406v9.766H143.754z M77.031,63.961
	c0-1.9,1.541-3.441,3.44-3.441h32.573c1.897,0,3.44,1.541,3.44,3.441v11.156H77.031V63.961z"/>
<path fill="#FFFFFF" d="M49.763,92.991v38.47c0,2.434,1.973,4.406,4.406,4.406h85.181c2.433,0,4.404-1.973,4.404-4.406v-38.47
	H49.763z M111.945,121.373h-9.858v9.857H92.021v-9.857h-9.857v-10.066h9.857v-9.856h10.066v9.856h9.858V121.373z"/>
</svg>
