<?xml version="1.0" encoding="utf-8"?>
<!-- Generator: Adobe Illustrator 16.0.0, SVG Export Plug-In . SVG Version: 6.00 Build 0)  -->
<!DOCTYPE svg PUBLIC "-//W3C//DTD SVG 1.1//EN" "http://www.w3.org/Graphics/SVG/1.1/DTD/svg11.dtd">
<svg version="1.1" id="Layer_1" xmlns="http://www.w3.org/2000/svg" xmlns:xlink="http://www.w3.org/1999/xlink" x="0px" y="0px"
	 width="24px" height="24px" viewBox="0 0 24 24" enable-background="new 0 0 24 24" xml:space="preserve">
<path fill="#73879C" d="M3,10c-0.24,0-0.45,0.09-0.59,0.25c-0.14,0.15-0.2,0.37-0.17,0.61l0.5,2.99C2.82,14.5,3.4,15,4,15h3
	c0.64,0,1.36-0.561,1.5-1.18l1.06-3.19c0.04-0.13,0.01-0.32-0.06-0.44C9.39,10.07,9.22,10,9,10H3 M7,17H4
	c-1.62,0-3.04-1.26-3.24-2.859l-0.5-2.991C0.15,10.3,0.39,9.5,0.91,8.92S2.19,8,3,8h6c0.83,0,1.58,0.35,2.06,0.96
	c0.11,0.15,0.21,0.31,0.29,0.49c0.43-0.09,0.87-0.09,1.291,0c0.08-0.18,0.18-0.34,0.299-0.49C13.41,8.35,14.16,8,15,8h6
	c0.811,0,1.57,0.34,2.09,0.92c0.51,0.58,0.75,1.38,0.65,2.19l-0.51,3.07C23.04,15.74,21.609,17,20,17h-3
	c-1.561,0-3.08-1.189-3.46-2.7l-0.899-2.71c-0.381-0.28-0.911-0.28-1.291,0l-0.92,2.78C10.07,15.82,8.56,17,7,17 M15,10
	c-0.221,0-0.391,0.07-0.5,0.19c-0.08,0.12-0.1,0.31-0.05,0.51l1.01,3.05C15.641,14.439,16.359,15,17,15h3
	c0.59,0,1.18-0.5,1.25-1.109l0.51-3.071c0.03-0.2-0.029-0.42-0.17-0.57C21.45,10.09,21.24,10,21,10H15z"/>
</svg>
