<?xml version="1.0" encoding="utf-8"?>
<!-- Generator: Adobe Illustrator 16.0.0, SVG Export Plug-In . SVG Version: 6.00 Build 0)  -->
<!DOCTYPE svg PUBLIC "-//W3C//DTD SVG 1.1//EN" "http://www.w3.org/Graphics/SVG/1.1/DTD/svg11.dtd">
<svg version="1.1" id="Layer_1" xmlns="http://www.w3.org/2000/svg" xmlns:xlink="http://www.w3.org/1999/xlink" x="0px" y="0px"
	 width="50px" height="50px" viewBox="0 0 50 50" enable-background="new 0 0 50 50" xml:space="preserve">
<path fill="#C2252C" stroke="#FFFFFF" stroke-width="2" stroke-miterlimit="10" d="M25.004,5.632
	c-7.424,0-13.428,6.004-13.428,13.428c0,10.071,13.428,24.937,13.428,24.937s13.43-14.866,13.43-24.937
	C38.432,11.636,32.43,5.632,25.004,5.632z"/>
<path fill="#FFFFFF" d="M28.427,27.424c0,0.318,0.157,0.577,0.353,0.577l0,0c0.194,0,0.353-0.259,0.353-0.577V15.253
	c0-0.318-0.158-0.577-0.353-0.577l0,0c-0.195,0-0.353,0.258-0.353,0.577V27.424z"/>
<polygon fill="#FFFFFF" points="17.499,15.315 20.503,18.514 17.499,21.712 27.864,21.712 27.864,15.315 "/>
</svg>
