<?xml version="1.0" encoding="utf-8"?>
<!-- Generator: Adobe Illustrator 16.0.0, SVG Export Plug-In . SVG Version: 6.00 Build 0)  -->
<!DOCTYPE svg PUBLIC "-//W3C//DTD SVG 1.1//EN" "http://www.w3.org/Graphics/SVG/1.1/DTD/svg11.dtd">
<svg version="1.1" id="Layer_1" xmlns="http://www.w3.org/2000/svg" xmlns:xlink="http://www.w3.org/1999/xlink" x="0px" y="0px"
	 width="50px" height="50px" viewBox="0 0 192 192" enable-background="new 0 0 192 192" xml:space="preserve">
<path fill="#3073D2" stroke="#FFFFFF" stroke-width="2" stroke-miterlimit="10" d="M97.078,21.744
	c-28.507,0-51.563,23.055-51.563,51.563c0,38.67,51.563,95.758,51.563,95.758s51.563-57.088,51.563-95.758
	C148.641,44.799,125.585,21.744,97.078,21.744z"/>
<g>
	<circle fill="#FFFFFF" cx="97.078" cy="78.5" r="8"/>
	<path fill="#FFFFFF" d="M89.578,53.5l-4.575,5h-7.925c-2.75,0-5,2.25-5,5v30c0,2.749,2.25,5,5,5h40c2.749,0,5-2.251,5-5v-30
		c0-2.75-2.251-5-5-5h-7.925l-4.575-5H89.578z M97.078,91c-6.899,0-12.5-5.601-12.5-12.5S90.179,66,97.078,66s12.5,5.601,12.5,12.5
		S103.978,91,97.078,91z"/>
</g>
</svg>
