<?xml version="1.0" encoding="utf-8"?>
<!-- Generator: Adobe Illustrator 16.0.0, SVG Export Plug-In . SVG Version: 6.00 Build 0)  -->
<!DOCTYPE svg PUBLIC "-//W3C//DTD SVG 1.1//EN" "http://www.w3.org/Graphics/SVG/1.1/DTD/svg11.dtd">
<svg version="1.1" id="Layer_1" xmlns="http://www.w3.org/2000/svg" xmlns:xlink="http://www.w3.org/1999/xlink" x="0px" y="0px"
	 width="50px" height="50px" viewBox="0 0 50 50" enable-background="new 0 0 50 50" xml:space="preserve">
<path fill="#C2252C" stroke="#FFFFFF" stroke-width="2" stroke-miterlimit="10" d="M25.004,5.632
	c-7.424,0-13.428,6.004-13.428,13.428c0,10.071,13.428,24.937,13.428,24.937s13.43-14.866,13.43-24.937
	C38.432,11.636,32.43,5.632,25.004,5.632z"/>
<path fill="#FFFFFF" d="M31.421,14.917c-0.165,0-0.304,0.104-0.347,0.244l-12.238,6.12c-0.052-0.02-0.108-0.03-0.167-0.03
	c-0.25,0-0.452,0.189-0.452,0.424v1.592c0,0.234,0.203,0.425,0.452,0.425c0.146,0,0.273-0.065,0.356-0.165l0.873,0.031
	c0.31,1.258,1.445,2.193,2.8,2.193c1.283,0,2.369-0.838,2.744-1.994l5.714,0.204c0.065,0.066,0.159,0.109,0.265,0.109
	c0.2,0,0.361-0.15,0.361-0.333V15.25C31.782,15.066,31.621,14.917,31.421,14.917z M22.698,25.115c-0.991,0-1.831-0.643-2.13-1.534
	l4.205,0.149C24.434,24.544,23.633,25.115,22.698,25.115z"/>
</svg>
