<?xml version="1.0" encoding="utf-8"?>
<!-- Generator: Adobe Illustrator 16.0.0, SVG Export Plug-In . SVG Version: 6.00 Build 0)  -->
<!DOCTYPE svg PUBLIC "-//W3C//DTD SVG 1.1//EN" "http://www.w3.org/Graphics/SVG/1.1/DTD/svg11.dtd">
<svg version="1.1" id="Layer_1" xmlns="http://www.w3.org/2000/svg" xmlns:xlink="http://www.w3.org/1999/xlink" x="0px" y="0px"
	 width="50px" height="50px" viewBox="0 0 50 50" enable-background="new 0 0 50 50" xml:space="preserve">
<path fill="#333333" stroke="#FFFFFF" stroke-width="2" stroke-miterlimit="10" d="M24.704,5.632
	c-7.424,0-13.428,6.004-13.428,13.428c0,10.071,13.428,24.937,13.428,24.937s13.43-14.866,13.43-24.937
	C38.13,11.636,32.128,5.632,24.704,5.632z"/>
<path fill="#FFFFFF" d="M21.667,15.712c0,0,0.364,0.683,0,1.685c-0.365,1.002-0.82,1.39-1.64,2.812
	c-0.82,1.423-1.047,2.085-1.047,3.052s0.41,2.451,1.002,3.053c0.592,0.602,1.32,1.086,2.368,1.436s2.232,0.714,3.097,0.486
	c0.865-0.228,1.64-0.41,2.551-1.185c0.91-0.773,1.411-1.229,1.867-2.413c0.456-1.185,0.728-2.83,0.456-3.625
	c-0.274-0.792-0.821-1.757-0.821-1.757l-0.115,1.312c0,0,0.239-0.529-0.248,0.445c-0.513,1.027-0.729,1.348-1.367,1.621
	s0.046,0.183,0.319-1.002c0.272-1.184,0.272-2.687-0.229-3.734c-0.501-1.048-1.184-2.459-2.049-3.234
	c-0.866-0.774-1.548-1.32-2.231-1.639c-0.683-0.318-1.868-0.501-1.868-0.501l0.639,0.774c0,0,0.41,0.273,0.637,1.321
	c0.229,1.047,0.229,1.822,0.229,2.732s0.044,0.987-0.137,1.905c-0.182,0.918-0.136,0.727-0.41-0.908
	C22.396,16.715,21.667,15.712,21.667,15.712z"/>
</svg>
