<?xml version="1.0" encoding="utf-8"?>
<!-- Generator: Adobe Illustrator 16.0.0, SVG Export Plug-In . SVG Version: 6.00 Build 0)  -->
<!DOCTYPE svg PUBLIC "-//W3C//DTD SVG 1.1//EN" "http://www.w3.org/Graphics/SVG/1.1/DTD/svg11.dtd">
<svg version="1.1" id="Layer_1" xmlns="http://www.w3.org/2000/svg" xmlns:xlink="http://www.w3.org/1999/xlink" x="0px" y="0px"
	 width="50px" height="50px" viewBox="0 0 192 192" enable-background="new 0 0 192 192" xml:space="preserve">
<path fill="#27C1C1" stroke="#FFFFFF" stroke-width="2" stroke-miterlimit="10" d="M97.03,21.652
	c-28.507,0-51.563,23.056-51.563,51.563c0,38.67,51.563,95.756,51.563,95.756s51.563-57.086,51.563-95.756
	C148.593,44.708,125.537,21.652,97.03,21.652z"/>
<path fill="#FFFFFF" d="M74.03,67.334v15.333h10.223L97.03,95.445V54.556L84.253,67.334H74.03z M108.53,75
	c0-4.523-2.605-8.408-6.389-10.3v20.572C105.925,83.408,108.53,79.522,108.53,75z M102.142,52.588v5.265
	c7.387,2.198,12.777,9.047,12.777,17.148s-5.391,14.949-12.777,17.147v5.264C112.389,95.085,120.03,85.939,120.03,75
	S112.389,54.914,102.142,52.588z"/>
</svg>
