<?xml version="1.0" encoding="utf-8"?>
<!-- Generator: Adobe Illustrator 16.0.0, SVG Export Plug-In . SVG Version: 6.00 Build 0)  -->
<!DOCTYPE svg PUBLIC "-//W3C//DTD SVG 1.1//EN" "http://www.w3.org/Graphics/SVG/1.1/DTD/svg11.dtd">
<svg version="1.1" id="Layer_1" xmlns="http://www.w3.org/2000/svg" xmlns:xlink="http://www.w3.org/1999/xlink" x="0px" y="0px"
	 width="50px" height="50px" viewBox="0 0 50 50" style="enable-background:new 0 0 50 50;" xml:space="preserve">
<path style="fill:#C2252C;stroke:#FFFFFF;stroke-width:2;stroke-miterlimit:10;" d="M25.004,5.632
	c-7.424,0-13.428,6.004-13.428,13.428c0,10.071,13.428,24.937,13.428,24.937S38.433,29.131,38.433,19.06
	C38.432,11.636,32.429,5.632,25.004,5.632z"/>
<g>
	<g>
		<circle style="fill:#FFFFFF;stroke:#C2252C;stroke-miterlimit:10;" cx="29.397" cy="14.325" r="2.045"/>
		<path style="fill:#FFFFFF;stroke:#C2252C;stroke-miterlimit:10;" d="M33.941,20.648c-0.264-2.277-2.196-4.045-4.544-4.045
			s-4.281,1.768-4.543,4.045H33.941z"/>
	</g>
	<g>
		<circle style="fill:#FFFFFF;stroke:#C2252C;stroke-miterlimit:10;" cx="25.005" cy="17.254" r="2.045"/>
		<path style="fill:#FFFFFF;stroke:#C2252C;stroke-miterlimit:10;" d="M29.548,23.576c-0.263-2.277-2.195-4.045-4.543-4.045
			c-2.347,0-4.281,1.768-4.543,4.045H29.548z"/>
	</g>
	<g>
		<circle style="fill:#FFFFFF;stroke:#C2252C;stroke-miterlimit:10;" cx="20.612" cy="20.182" r="2.045"/>
		<path style="fill:#FFFFFF;stroke:#C2252C;stroke-miterlimit:10;" d="M25.155,26.505c-0.264-2.277-2.195-4.044-4.543-4.044
			c-2.347,0-4.281,1.767-4.543,4.044H25.155z"/>
	</g>
</g>
</svg>
