<?xml version="1.0" encoding="utf-8"?>
<!-- Generator: Adobe Illustrator 16.0.0, SVG Export Plug-In . SVG Version: 6.00 Build 0)  -->
<!DOCTYPE svg PUBLIC "-//W3C//DTD SVG 1.1//EN" "http://www.w3.org/Graphics/SVG/1.1/DTD/svg11.dtd">
<svg version="1.1" id="Layer_1" xmlns="http://www.w3.org/2000/svg" xmlns:xlink="http://www.w3.org/1999/xlink" x="0px" y="0px"
	 width="50px" height="50px" viewBox="0 0 50 50" enable-background="new 0 0 50 50" xml:space="preserve">
<path fill="#C2252C" stroke="#FFFFFF" stroke-width="2" stroke-miterlimit="10" d="M25.101,5.632
	c-7.424,0-13.428,6.004-13.428,13.428c0,10.071,13.428,24.937,13.428,24.937S38.529,29.131,38.529,19.06
	C38.528,11.636,32.525,5.632,25.101,5.632z"/>
<g>
	<path fill="#FFFFFF" d="M29.166,21.096v-3.462c0-1.934-1.301-3.551-3.125-3.979v-0.429c0-0.523-0.518-0.946-1.041-0.946
		s-1.042,0.422-1.042,0.946v0.429c-1.823,0.428-3.125,2.046-3.125,3.979v3.462l-1.302,1.261v0.56h10.938v-0.56L29.166,21.096z"/>
	<path fill="#FFFFFF" d="M24.909,25.142c0.654,0,1.183-0.663,1.183-1.184h-2.367C23.725,24.479,24.255,25.142,24.909,25.142z"/>
</g>
</svg>
