<?xml version="1.0" encoding="utf-8"?>
<!-- Generator: Adobe Illustrator 16.0.0, SVG Export Plug-In . SVG Version: 6.00 Build 0)  -->
<!DOCTYPE svg PUBLIC "-//W3C//DTD SVG 1.1//EN" "http://www.w3.org/Graphics/SVG/1.1/DTD/svg11.dtd">
<svg version="1.1" id="Layer_1" xmlns="http://www.w3.org/2000/svg" xmlns:xlink="http://www.w3.org/1999/xlink" x="0px" y="0px"
	 width="50px" height="50px" viewBox="0 0 192 192" enable-background="new 0 0 192 192" xml:space="preserve">
<path fill="#C0C0C0" stroke="#FFFFFF" stroke-width="2" stroke-miterlimit="10" d="M96.592,21.281
	c-28.508,0-51.563,23.055-51.563,51.563c0,38.673,51.563,95.762,51.563,95.762s51.563-57.089,51.563-95.762
	C148.154,44.336,125.1,21.281,96.592,21.281z"/>
<g>
	<path fill="#FFFFFF" d="M95.245,73.447c1.661-1.254,3.309-2.518,4.949-3.79c1.774-1.407,2.659-3.28,2.659-5.612
		c0-1.543-0.711-2.875-2.14-3.994c-1.329-1.021-2.786-1.533-4.368-1.533c-4.303,0-6.453,2.468-6.453,7.407h-4.86
		c0-3.685,0.984-6.636,2.953-8.853c2.044-2.276,4.829-3.415,8.36-3.415c2.971,0,5.643,0.984,8.016,2.952
		c2.525,2.063,3.79,4.553,3.79,7.463c0,2.953-0.916,5.394-2.748,7.321c-1.72,1.408-3.435,2.816-5.151,4.225
		c-1.835,1.678-2.748,3.714-2.748,6.104v3.732h-4.922v-3.732C92.582,78.134,93.471,75.375,95.245,73.447z M92.035,97.028v-5.76
		h6.047v5.76H92.035z"/>
</g>
</svg>
