<?xml version="1.0" encoding="utf-8"?>
<!-- Generator: Adobe Illustrator 16.0.0, SVG Export Plug-In . SVG Version: 6.00 Build 0)  -->
<!DOCTYPE svg PUBLIC "-//W3C//DTD SVG 1.1//EN" "http://www.w3.org/Graphics/SVG/1.1/DTD/svg11.dtd">
<svg version="1.1" id="Layer_1" xmlns="http://www.w3.org/2000/svg" xmlns:xlink="http://www.w3.org/1999/xlink" x="0px" y="0px"
	 width="50px" height="50px" viewBox="0 0 192 192" enable-background="new 0 0 192 192" xml:space="preserve">
<path fill="#d77120" stroke="#FFFFFF" stroke-width="2" stroke-miterlimit="10" d="M96.888,22.15
	c-28.507,0-51.563,23.056-51.563,51.563c0,38.672,51.563,95.758,51.563,95.758s51.563-57.086,51.563-95.758
	C148.45,45.206,125.396,22.15,96.888,22.15z"/>
<path fill="#FFFFFF" d="M97,46.629l-23,9.998v14.998c0,13.873,10.103,26.847,23,29.996c12.897-3.149,23-16.123,23-29.996V56.627
	L97,46.629z M97,93.865V72H80c0,0,0,0.34,0,0.33V61.563l17-7.178V72h16.101C113.084,83,105,91.607,97,93.865z"/>
</svg>
