<?xml version="1.0" encoding="utf-8"?>
<!-- Generator: Adobe Illustrator 16.0.0, SVG Export Plug-In . SVG Version: 6.00 Build 0)  -->
<!DOCTYPE svg PUBLIC "-//W3C//DTD SVG 1.1//EN" "http://www.w3.org/Graphics/SVG/1.1/DTD/svg11.dtd">
<svg version="1.1" id="Layer_1" xmlns="http://www.w3.org/2000/svg" xmlns:xlink="http://www.w3.org/1999/xlink" x="0px" y="0px"
	 width="192px" height="192px" viewBox="0 0 192 192" enable-background="new 0 0 192 192" xml:space="preserve">
<path fill="#333333" stroke="#FFFFFF" stroke-width="5" stroke-miterlimit="10" d="M171.938,160.619c0,6.627-5.373,12-12,12H31.937
	c-6.628,0-12-5.373-12-12v-128c0-6.627,5.372-12,12-12h128.001c6.627,0,12,5.373,12,12V160.619z"/>
<path fill="#FFFFFF" d="M117.628,90.4c1.528,1.527,4.164,1.366,5.889-0.358c0.466-0.466,0.808-1,1.043-1.558l20.879-20.879
	c0.715-0.717,0.715-1.877-0.001-2.593c-0.715-0.715-1.876-0.716-2.593,0l-19.057,19.057l-6.159-6.159l19.057-19.057
	c0.716-0.716,0.715-1.877,0-2.593c-0.716-0.715-1.878-0.716-2.594,0l-19.057,19.056l-6.023-6.024
	c-0.046-0.045-0.102-0.076-0.149-0.119l19.071-19.072c0.716-0.717,0.715-1.877,0-2.593c-0.716-0.715-1.878-0.716-2.594,0
	l-21.685,21.685c-0.013,0.012-0.021,0.027-0.032,0.04c-0.171,0.131-0.343,0.26-0.5,0.417c-1.726,1.726-1.884,4.362-0.358,5.888
	l4.521,4.522l-16.739,16.74L51.827,58.08l-5.393,5.393c-0.021,0.019-0.051,0.027-0.07,0.046c-0.02,0.019-0.027,0.05-0.046,0.07
	l-0.147,0.148l0.031,0.031c-1.532,2.429,2.988,11.56,8.504,23.005c4.979,10.333,19.036,9.168,21.744,7.243l8.439,8.439
	l-38.156,38.156l5.658,5.656l38.155-38.156l38.156,38.156l5.656-5.656l-38.156-38.156l16.74-16.739L117.628,90.4z"/>
</svg>
