<?xml version="1.0" encoding="utf-8"?>
<!-- Generator: Adobe Illustrator 16.0.0, SVG Export Plug-In . SVG Version: 6.00 Build 0)  -->
<!DOCTYPE svg PUBLIC "-//W3C//DTD SVG 1.1//EN" "http://www.w3.org/Graphics/SVG/1.1/DTD/svg11.dtd">
<svg version="1.1" id="Layer_1" xmlns="http://www.w3.org/2000/svg" xmlns:xlink="http://www.w3.org/1999/xlink" x="0px" y="0px"
	 width="192px" height="192px" viewBox="0 0 192 192" enable-background="new 0 0 192 192" xml:space="preserve">
<path fill="#333333" stroke="#FFFFFF" stroke-width="5" stroke-miterlimit="10" d="M172.167,159.742c0,6.627-5.373,12-12,12H32.166
	c-6.628,0-12-5.373-12-12v-128c0-6.627,5.372-12,12-12h128.001c6.627,0,12,5.373,12,12V159.742z"/>
<path fill="#FFFFFF" d="M143.98,81.762c-1.123-7.639-4.088-14.682-8.422-20.676c1.721-1.734,2.783-4.121,2.783-6.757v-5.817h-16.291
	c-4.582-2.833-9.68-4.905-15.121-6.035v-5.599H87.73v5.6c-5.441,1.129-10.538,3.203-15.12,6.035H56.317v5.817
	c0,2.636,1.063,5.022,2.783,6.757c-4.334,5.994-7.299,13.037-8.422,20.676h-8.323v5.816c0,4.964,3.764,9.043,8.592,9.545
	c0.962,5.279,2.803,10.252,5.37,14.764v5.27c0,5.301,4.297,9.598,9.599,9.598c1.052,0,2.062-0.174,3.009-0.488
	c1.567,1.188,3.216,2.271,4.927,3.258l-8.481,22.082h-6.44v3h76.799v-3h-7.797l-8.236-21.445c2.115-1.146,4.133-2.449,6.041-3.893
	c0.945,0.312,1.955,0.486,3.008,0.486c5.301,0,9.598-4.297,9.598-9.598v-5.268c2.664-4.682,4.547-9.857,5.477-15.357
	c3.6-1.384,6.158-4.865,6.158-8.952v-5.818H143.98z M98.83,52.164c3.666-0.577,6.643-3.217,7.689-6.704
	c4.5,0.957,8.744,2.604,12.625,4.82v4.048c0,2.592,1.033,4.939,2.701,6.667L107.59,75.252c-2.418-2.025-5.439-3.347-8.76-3.656
	V52.164z M101.504,87.741c0,2.396-1.941,4.338-4.338,4.338c-2.395,0-4.338-1.943-4.338-4.338s1.943-4.337,4.338-4.337
	C99.562,83.404,101.504,85.346,101.504,87.741z M75.515,54.329v-4.048c3.882-2.216,8.125-3.864,12.624-4.82
	c1.049,3.486,4.025,6.127,7.691,6.704v19.431c-3.595,0.335-6.834,1.866-9.34,4.183L72.245,61.533
	C74.245,59.774,75.515,57.203,75.515,54.329z M61.521,62.856c1.317,0.68,2.809,1.071,4.395,1.071c1.322,0,2.583-0.268,3.729-0.751
	l14.839,14.839c-1.688,2.28-2.792,5.014-3.07,7.996H61.553v-4.249h-7.842C54.809,74.785,57.552,68.351,61.521,62.856z
	 M59.461,111.339c-2.622-4.361-4.507-9.211-5.495-14.375c3.876-0.828,6.875-3.994,7.469-7.953h19.979
	c0.31,3.32,1.631,6.342,3.656,8.759l-13.568,13.568H59.461z M71.854,124.688c2.227-1.758,3.66-4.475,3.66-7.531v-5.588
	l11.687-11.688c2.395,1.963,5.37,3.242,8.629,3.545v21.875h-8.1v5.816c0,0.215,0.018,0.426,0.032,0.637
	C81.947,130.466,76.563,128.026,71.854,124.688z M124.717,151.606H68.584l7.933-20.65c3.756,1.855,7.792,3.221,12.027,4.021
	c1.486,3.379,4.858,5.74,8.786,5.74s7.299-2.361,8.785-5.74c3.809-0.721,7.453-1.9,10.879-3.479L124.717,151.606z M106.896,131.755
	c0.014-0.211,0.033-0.422,0.033-0.637v-5.816h-8.1v-21.875c2.982-0.277,5.715-1.383,7.994-3.07l12.32,12.32v4.48
	c0,3.057,1.434,5.773,3.66,7.531C118.096,128.026,112.713,130.466,106.896,131.755z M135.199,111.339h-13.148l-12.988-12.988
	c2.316-2.505,3.848-5.746,4.182-9.339h17.654c0.691,4.621,4.666,8.167,9.48,8.167c0.094,0,0.186-0.012,0.279-0.014
	C139.66,102.255,137.787,107.034,135.199,111.339z M130.779,81.762v4.249h-17.535c-0.303-3.259-1.58-6.234-3.543-8.628
	l14.566-14.566c1.336,0.707,2.857,1.111,4.477,1.111c1.586,0,3.076-0.391,4.395-1.072c3.969,5.495,6.713,11.929,7.811,18.906
	H130.779z"/>
</svg>
