<?xml version="1.0" encoding="utf-8"?>
<!-- Generator: Adobe Illustrator 16.0.0, SVG Export Plug-In . SVG Version: 6.00 Build 0)  -->
<!DOCTYPE svg PUBLIC "-//W3C//DTD SVG 1.1//EN" "http://www.w3.org/Graphics/SVG/1.1/DTD/svg11.dtd">
<svg version="1.1" id="Layer_1" xmlns="http://www.w3.org/2000/svg" xmlns:xlink="http://www.w3.org/1999/xlink" x="0px" y="0px"
	 width="192px" height="192px" viewBox="0 0 192 192" enable-background="new 0 0 192 192" xml:space="preserve">
<path fill="#333333" stroke="#FFFFFF" stroke-width="5" stroke-miterlimit="10" d="M171.841,160.308c0,6.627-5.373,12-12,12H31.839
	c-6.628,0-12-5.373-12-12V32.309c0-6.627,5.372-12,12-12h128.001c6.627,0,12,5.373,12,12V160.308z"/>
<g>
	<circle fill="#FFFFFF" cx="85.331" cy="141.373" r="9.104"/>
	<circle fill="#FFFFFF" cx="127.437" cy="141.373" r="9.104"/>
	<path fill="#FFFFFF" d="M69.794,109.452l71.679-5.254l11.38-40.208H59.713l-4.526-20.418v-1.432h-16.36v3.489h13.242l18.268,82.398
		v1.434h72.122v-3.489H73.456L69.794,109.452z M130.908,94.994H76.227v-2.425h54.681V94.994z M136.541,85.899H71.485v-2.426h65.056
		V85.899z M66.938,74.378h72.459v2.426H66.938V74.378z"/>
</g>
</svg>
