<?xml version="1.0" encoding="utf-8"?>
<!-- Generator: Adobe Illustrator 16.0.0, SVG Export Plug-In . SVG Version: 6.00 Build 0)  -->
<!DOCTYPE svg PUBLIC "-//W3C//DTD SVG 1.1//EN" "http://www.w3.org/Graphics/SVG/1.1/DTD/svg11.dtd">
<svg version="1.1" id="Layer_1" xmlns="http://www.w3.org/2000/svg" xmlns:xlink="http://www.w3.org/1999/xlink" x="0px" y="0px"
	 width="192px" height="192px" viewBox="0 0 192 192" style="enable-background:new 0 0 192 192;" xml:space="preserve">
<path style="fill:#333333;" d="M172.543,160.135c0,6.627-5.373,12-12,12H32.542c-6.628,0-12-5.373-12-12v-128
	c0-6.627,5.372-12,12-12h128.001c6.627,0,12,5.373,12,12V160.135z"/>
<path style="fill:#FFFFFF;" d="M128.954,60.089l-4.629,6.934c8.462,6.875,13.887,17.358,13.887,29.112
	c0,11.758-5.425,22.24-13.887,29.115l4.629,6.93c10.693-8.379,17.588-21.396,17.588-36.045
	C146.542,81.486,139.647,68.478,128.954,60.089z M119.667,73.996l-4.678,7.002c4.033,3.804,6.587,9.16,6.587,15.141
	c0,5.982-2.554,11.344-6.587,15.143l4.678,7.002c6.24-5.357,10.205-13.281,10.205-22.148
	C129.872,87.272,125.907,79.347,119.667,73.996z M96.542,50.304c-4.902,0-6.387,2.847-6.387,2.847S77.401,67.165,68.617,73.346
	c-1.616,1.03-3.394,1.958-6.533,1.958h-7.212c-4.6,0-8.33,3.73-8.33,8.33v25c0,4.6,3.73,8.33,8.33,8.33h7.212
	c3.14,0,4.917,0.928,6.528,1.957c8.784,6.182,21.538,20.201,21.538,20.201s1.489,2.842,6.392,2.842c4.6,0,8.33-3.727,8.33-8.33v-75
	C104.872,54.03,101.142,50.304,96.542,50.304z"/>
</svg>
