<?xml version="1.0" encoding="utf-8"?>
<!-- Generator: Adobe Illustrator 16.0.0, SVG Export Plug-In . SVG Version: 6.00 Build 0)  -->
<!DOCTYPE svg PUBLIC "-//W3C//DTD SVG 1.1//EN" "http://www.w3.org/Graphics/SVG/1.1/DTD/svg11.dtd">
<svg version="1.1" id="Layer_1" xmlns="http://www.w3.org/2000/svg" xmlns:xlink="http://www.w3.org/1999/xlink" x="0px" y="0px"
	 width="192px" height="192px" viewBox="0 0 192 192" enable-background="new 0 0 192 192" xml:space="preserve">
<path fill="#333333" stroke="#FFFFFF" stroke-width="5" stroke-miterlimit="10" d="M173.152,159.706c0,6.627-5.373,12-12,12h-128
	c-6.628,0-12-5.373-12-12v-128c0-6.627,5.372-12,12-12h128c6.627,0,12,5.373,12,12V159.706z"/>
<path fill="#FFFFFF" d="M149.723,68.169h2.215c-14.258-13.573-33.547-21.905-54.785-21.905c-20.186,0-38.602,7.537-52.617,19.936
	h-0.062v0.056c-0.709,0.629-1.418,1.26-2.105,1.914h2.105v69.487h-0.935v7.491h107.021v-7.491h-0.836V68.169z M47.81,120.979v-1.447
	l6.371-6.371l6.216,6.217v1.757l-6.216,6.216L47.81,120.979z M53.001,128.529l-5.191,5.189v-10.382L53.001,128.529z M54.026,77.699
	l-6.216-6.217v-1.945h12.586v1.791L54.026,77.699z M60.396,73.688V84.07l-5.19-5.191L60.396,73.688z M52.846,78.878l-5.036,5.037
	V73.844L52.846,78.878z M54.026,80.059l6.371,6.37v1.604l-6.216,6.215l-6.371-6.369v-1.605L54.026,80.059z M60.396,90.393v10.072
	l-5.036-5.036L60.396,90.393z M53,95.429l-5.19,5.19V90.238L53,95.429z M54.181,96.609l6.216,6.214v1.759l-6.216,6.218l-6.371-6.37
	v-1.451L54.181,96.609z M60.396,106.943v10.072l-5.036-5.037L60.396,106.943z M53,111.979l-5.19,5.191v-10.382L53,111.979z
	 M60.396,123.492v10.072l-5.035-5.035L60.396,123.492z M130.461,137.656H63.734v-60.63h66.727V137.656z M133.799,137.656v-1.576
	l6.37-6.371l6.216,6.216v1.731H133.799z M140.016,77.699l-6.217-6.217v-1.945h12.586v1.791L140.016,77.699z M146.385,73.688V84.07
	l-5.191-5.191L146.385,73.688z M138.834,78.878l-5.035,5.037V73.844L138.834,78.878z M140.016,80.059l6.369,6.37v1.604l-6.217,6.215
	l-6.369-6.369v-1.605L140.016,80.059z M146.385,90.393v10.072l-5.037-5.036L146.385,90.393z M138.988,95.429l-5.189,5.19V90.238
	L138.988,95.429z M140.168,96.609l6.217,6.214v1.759l-6.217,6.218l-6.369-6.37v-1.451L140.168,96.609z M146.385,106.943v10.072
	l-5.037-5.037L146.385,106.943z M138.988,111.979l-5.189,5.191v-10.382L138.988,111.979z M140.168,113.159l6.217,6.217v1.757
	l-6.216,6.217l-6.37-6.371v-1.447L140.168,113.159z M146.385,123.492v10.072l-5.035-5.035L146.385,123.492z M138.99,128.529
	l-5.191,5.189v-10.382L138.99,128.529z M130.461,68.169v5.519H63.734v-5.519H130.461z M47.81,136.08l6.371-6.371l6.216,6.216v1.731
	H47.81V136.08z"/>
</svg>
