<?xml version="1.0" encoding="utf-8"?>
<!-- Generator: Adobe Illustrator 16.0.0, SVG Export Plug-In . SVG Version: 6.00 Build 0)  -->
<!DOCTYPE svg PUBLIC "-//W3C//DTD SVG 1.1//EN" "http://www.w3.org/Graphics/SVG/1.1/DTD/svg11.dtd">
<svg version="1.1" id="Layer_1" xmlns="http://www.w3.org/2000/svg" xmlns:xlink="http://www.w3.org/1999/xlink" x="0px" y="0px"
	 width="192px" height="192px" viewBox="0 0 192 192" enable-background="new 0 0 192 192" xml:space="preserve">
<path fill="#333333" stroke="#FFFFFF" stroke-width="5" stroke-miterlimit="10" d="M172.252,159.952c0,6.627-5.373,12-12,12H32.25
	c-6.628,0-12-5.373-12-12V31.951c0-6.627,5.372-12,12-12h128.002c6.627,0,12,5.373,12,12V159.952z"/>
<path fill="#FFFFFF" d="M105.768,113.156V51.655c0-6.437-4.146-11.656-9.513-11.656c-5.363,0-9.511,5.219-9.511,11.656v10.239h4.993
	v0.951h-4.993v5.945h4.993v0.951h-4.993v5.945h4.993v0.952h-4.993v5.944h4.993v0.952h-4.993v5.945h4.993v0.951h-4.993v22.713
	c-6.659,3.469-10.999,10.302-10.999,18.167c0,11.374,9.166,20.594,20.539,20.594c11.374,0,20.474-9.22,20.474-20.594
	C116.758,123.455,112.426,116.628,105.768,113.156z M96.231,137.203c-3.577,0-6.451-2.899-6.451-6.477
	c0-2.903,1.72-5.362,4.573-6.183V73.951h3.805v50.603c2.854,0.826,4.537,3.276,4.537,6.173
	C102.695,134.304,99.808,137.203,96.231,137.203z"/>
</svg>
