<?xml version="1.0" encoding="utf-8"?>
<!-- Generator: Adobe Illustrator 16.0.0, SVG Export Plug-In . SVG Version: 6.00 Build 0)  -->
<!DOCTYPE svg PUBLIC "-//W3C//DTD SVG 1.1//EN" "http://www.w3.org/Graphics/SVG/1.1/DTD/svg11.dtd">
<svg version="1.1" id="Layer_1" xmlns="http://www.w3.org/2000/svg" xmlns:xlink="http://www.w3.org/1999/xlink" x="0px" y="0px"
	 width="192px" height="192px" viewBox="0 0 192 192" style="enable-background:new 0 0 192 192;" xml:space="preserve">
<path style="fill:#333333;" d="M173.065,159.748c0,6.627-5.373,12-12,12H33.064c-6.627,0-12-5.373-12-12v-128
	c0-6.627,5.373-12,12-12h128.001c6.627,0,12,5.373,12,12V159.748z"/>
<path style="fill:#FFFFFF;" d="M99.027,153.49c0,1.289-1.045,2.334-2.334,2.334l0,0c-1.288,0-2.333-1.045-2.333-2.334V37.491
	c0-1.288,1.045-2.333,2.333-2.333l0,0c1.289,0,2.334,1.045,2.334,2.333V153.49z"/>
<g>
	<circle style="fill:#FFFFFF;" cx="57.065" cy="70.85" r="7.385"/>
	<path style="fill:#FFFFFF;" d="M62.706,82.376H51.424C49.968,82.376,43,107.87,43,107.87c0,1.457,1.182,2.639,2.637,2.639h4.57
		v16.024c0,0.827,0.671,1.498,1.499,1.498c0.827,0,1.499-0.671,1.499-1.498v-16.024h7.556v16.024c0,0.827,0.672,1.498,1.499,1.498
		s1.498-0.671,1.498-1.498v-16.024h4.735c1.457,0,2.638-1.182,2.638-2.639C71.131,107.87,64.163,82.376,62.706,82.376z"/>
</g>
<g>
	<circle style="fill:#FFFFFF;" cx="131.599" cy="67.978" r="7.097"/>
	<path style="fill:#FFFFFF;" d="M165.021,114.135l-11.759-11.757c-0.617-1.404-2.018-2.386-3.65-2.386h-11.692v-5.91h11.739
		c1.439,0,2.606-1.167,2.606-2.607c0-1.439-1.167-2.606-2.606-2.606h-11.739v-5.646c0-2.203-1.786-3.988-3.988-3.988h-3.988
		c-2.203,0-3.989,1.786-3.989,3.988v21.717c0,2.202,1.786,3.988,3.989,3.988h3.087h0.901h15.681c0.341,0,0.67-0.047,0.985-0.128
		l9.879,9.878c1.14,1.14,3.081,1.047,4.336-0.208C166.066,117.217,166.159,115.275,165.021,114.135z"/>
	<path style="fill:#FFFFFF;" d="M146.992,115.903c-2.911,5.956-9.029,10.06-16.106,10.06c-9.896,0-17.919-8.022-17.919-17.919
		c0-6.647,3.622-12.446,8.998-15.54v-5.199c-8.029,3.458-13.651,11.441-13.651,20.739c0,12.467,10.105,22.572,22.572,22.572
		c9.703,0,17.974-6.122,21.165-14.713H146.992z"/>
</g>
</svg>
