<?xml version="1.0" encoding="utf-8"?>
<!-- Generator: Adobe Illustrator 16.0.0, SVG Export Plug-In . SVG Version: 6.00 Build 0)  -->
<!DOCTYPE svg PUBLIC "-//W3C//DTD SVG 1.1//EN" "http://www.w3.org/Graphics/SVG/1.1/DTD/svg11.dtd">
<svg version="1.1" id="Layer_1" xmlns="http://www.w3.org/2000/svg" xmlns:xlink="http://www.w3.org/1999/xlink" x="0px" y="0px"
	 width="192px" height="192px" viewBox="0 0 192 192" enable-background="new 0 0 192 192" xml:space="preserve">
<path fill="#333333" stroke="#FFFFFF" stroke-width="5" stroke-miterlimit="10" d="M173.064,159.748c0,6.627-5.373,12-12,12h-128
	c-6.627,0-12-5.373-12-12v-128c0-6.627,5.373-12,12-12h128c6.627,0,12,5.373,12,12V159.748z"/>
<path fill="#FFFFFF" d="M99.027,153.49c0,1.289-1.045,2.334-2.334,2.334l0,0c-1.289,0-2.333-1.045-2.333-2.334V37.491
	c0-1.288,1.045-2.333,2.333-2.333l0,0c1.289,0,2.334,1.045,2.334,2.333V153.49z"/>
<g>
	<circle fill="#FFFFFF" cx="57.065" cy="70.85" r="7.385"/>
	<path fill="#FFFFFF" d="M62.706,82.376H51.424C49.968,82.376,43,107.87,43,107.87c0,1.457,1.182,2.639,2.637,2.639h4.57v16.024
		c0,0.826,0.671,1.498,1.499,1.498c0.827,0,1.499-0.672,1.499-1.498v-16.024h7.556v16.024c0,0.826,0.672,1.498,1.499,1.498
		c0.827,0,1.498-0.672,1.498-1.498v-16.024h4.735c1.457,0,2.638-1.182,2.638-2.639C71.131,107.87,64.163,82.376,62.706,82.376z"/>
</g>
<g>
	<circle fill="#FFFFFF" cx="131.6" cy="67.978" r="7.097"/>
	<path fill="#FFFFFF" d="M165.021,114.135l-11.76-11.757c-0.617-1.403-2.018-2.386-3.65-2.386H137.92v-5.91h11.739
		c1.438,0,2.606-1.167,2.606-2.607c0-1.439-1.168-2.606-2.606-2.606H137.92v-5.646c0-2.203-1.786-3.988-3.988-3.988h-3.988
		c-2.202,0-3.988,1.786-3.988,3.988v21.716c0,2.203,1.786,3.988,3.988,3.988h3.088h0.9h15.682c0.341,0,0.67-0.047,0.984-0.128
		l9.879,9.878c1.141,1.141,3.082,1.047,4.336-0.208C166.066,117.217,166.159,115.275,165.021,114.135z"/>
	<path fill="#FFFFFF" d="M146.992,115.902c-2.911,5.957-9.029,10.061-16.105,10.061c-9.896,0-17.92-8.021-17.92-17.919
		c0-6.647,3.622-12.446,8.998-15.54v-5.199c-8.029,3.458-13.65,11.441-13.65,20.739c0,12.467,10.104,22.572,22.572,22.572
		c9.702,0,17.973-6.122,21.164-14.714H146.992z"/>
</g>
</svg>
