<?xml version="1.0" encoding="utf-8"?>
<!-- Generator: Adobe Illustrator 16.0.0, SVG Export Plug-In . SVG Version: 6.00 Build 0)  -->
<!DOCTYPE svg PUBLIC "-//W3C//DTD SVG 1.1//EN" "http://www.w3.org/Graphics/SVG/1.1/DTD/svg11.dtd">
<svg version="1.1" id="Layer_1" xmlns="http://www.w3.org/2000/svg" xmlns:xlink="http://www.w3.org/1999/xlink" x="0px" y="0px"
	 width="192px" height="192px" viewBox="0 0 192 192" enable-background="new 0 0 192 192" xml:space="preserve">
<path fill="#333333" stroke="#FFFFFF" stroke-width="5" stroke-miterlimit="10" d="M172,159.389c0,6.627-5.373,12-12,12H31.999
	c-6.628,0-12-5.373-12-12v-128c0-6.627,5.372-12,12-12H160c6.627,0,12,5.373,12,12V159.389z"/>
<path fill="#FFFFFF" d="M102.166,153.387c0,1.289-1.045,2.334-2.334,2.334l0,0c-1.289,0-2.334-1.045-2.334-2.334V37.388
	c0-1.288,1.045-2.333,2.334-2.333l0,0c1.289,0,2.334,1.045,2.334,2.333V153.387z"/>
<circle fill="#FFFFFF" cx="58.834" cy="58.388" r="10.675"/>
<path fill="#FFFFFF" d="M66.988,75.054h-16.31c-2.105,0-12.179,36.854-12.179,36.854c0,2.105,1.707,3.812,3.812,3.812h6.605v23.168
	c0,1.196,0.971,2.166,2.167,2.166s2.167-0.97,2.167-2.166v-23.168h10.924v23.168c0,1.196,0.97,2.166,2.166,2.166
	c1.197,0,2.167-0.97,2.167-2.166v-23.168h6.846c2.105,0,3.812-1.707,3.812-3.812C79.166,111.908,69.094,75.054,66.988,75.054z"/>
<circle fill="#FFFFFF" cx="139.5" cy="58.388" r="10.675"/>
<path fill="#FFFFFF" d="M147.498,75.054h-15.582c-3.314,0-6,2.687-6,6v28.668c0,2.485,1.514,4.619,3.668,5.529v23.637
	c0,1.197,0.971,2.168,2.168,2.168c1.195,0,2.166-0.971,2.166-2.168v-23.166h10.924v23.166c0,1.197,0.971,2.168,2.166,2.168
	c1.197,0,2.168-0.971,2.168-2.168V115.48c2.497-0.728,4.322-3.027,4.322-5.758V81.054C153.498,77.74,150.812,75.054,147.498,75.054z
	"/>
</svg>
