<?xml version="1.0" encoding="utf-8"?>
<!-- Generator: Adobe Illustrator 16.0.0, SVG Export Plug-In . SVG Version: 6.00 Build 0)  -->
<!DOCTYPE svg PUBLIC "-//W3C//DTD SVG 1.1//EN" "http://www.w3.org/Graphics/SVG/1.1/DTD/svg11.dtd">
<svg version="1.1" id="Layer_1" xmlns="http://www.w3.org/2000/svg" xmlns:xlink="http://www.w3.org/1999/xlink" x="0px" y="0px"
	 width="24px" height="24px" viewBox="0 0 24 24" enable-background="new 0 0 24 24" xml:space="preserve">
<path fill="#73879C" d="M15,2c-0.553,0-1,0.448-1,1v3h-4C8.89,6,8,6.89,8,8v12c0,1.109,0.89,2,2,2h5c1.109,0,2-0.891,2-2V8
	c0-0.74-0.4-1.38-1-1.72V3C16,2.448,15.553,2,15,2 M10,8h5v5h-5V8 M10,15h1v1h-1V15 M12,15h1v1h-1V15 M14,15h1v1h-1V15 M10,17h1v1
	h-1V17 M12,17h1v1h-1V17 M14,17h1v1h-1V17 M10,19h1v1h-1V19 M12,19h1v1h-1V19 M14,19h1v1h-1V19z"/>
</svg>
