<?xml version="1.0" encoding="utf-8"?>
<!-- Generator: Adobe Illustrator 16.0.0, SVG Export Plug-In . SVG Version: 6.00 Build 0)  -->
<!DOCTYPE svg PUBLIC "-//W3C//DTD SVG 1.1//EN" "http://www.w3.org/Graphics/SVG/1.1/DTD/svg11.dtd">
<svg version="1.1" id="Layer_1" xmlns="http://www.w3.org/2000/svg" xmlns:xlink="http://www.w3.org/1999/xlink" x="0px" y="0px"
	 width="24px" height="24px" viewBox="0 0 24 24" enable-background="new 0 0 24 24" xml:space="preserve">
<path fill="#73879C" d="M6,12c0-3.313,2.687-6,6-6s6,2.687,6,6s-2.687,6-6,6S6,15.313,6,12 M20,12c0-2.55-1.189-4.81-3.05-6.27L16,0
	H8L7.05,5.73C5.19,7.19,4,9.45,4,12c0,2.54,1.19,4.811,3.05,6.27L8,24h8l0.95-5.73C18.811,16.811,20,14.54,20,12z"/>
</svg>
