<?xml version="1.0" encoding="utf-8"?>
<!-- Generator: Adobe Illustrator 16.0.0, SVG Export Plug-In . SVG Version: 6.00 Build 0)  -->
<!DOCTYPE svg PUBLIC "-//W3C//DTD SVG 1.1//EN" "http://www.w3.org/Graphics/SVG/1.1/DTD/svg11.dtd">
<svg version="1.1" id="Layer_1" xmlns="http://www.w3.org/2000/svg" xmlns:xlink="http://www.w3.org/1999/xlink" x="0px" y="0px"
	 width="192px" height="192px" viewBox="0 0 192 192" enable-background="new 0 0 192 192" xml:space="preserve">
<path fill="#333333" stroke="#FFFFFF" stroke-width="5" stroke-miterlimit="10" d="M172.252,159.952c0,6.627-5.373,12-12,12H32.25
	c-6.628,0-12-5.373-12-12V31.951c0-6.627,5.372-12,12-12h128.002c6.627,0,12,5.373,12,12V159.952z"/>
<path fill="#FFFFFF" d="M126.751,70.763c0-6.891-5.586-12.478-12.479-12.478c-6.891,0-12.478,5.587-12.478,12.478
	c0,0.703,0.071,1.387,0.184,2.058h5.253c-0.19-0.653-0.297-1.342-0.297-2.058c0-4.053,3.285-7.338,7.338-7.338
	c4.054,0,7.339,3.286,7.339,7.338c0,3.995-3.192,7.236-7.164,7.33v-0.061h-1.136h-9.168H38.979v5.21h75.468v-0.009
	C121.258,83.138,126.751,77.596,126.751,70.763z"/>
<path fill="#FFFFFF" d="M159.095,86.662c0-8.39-6.802-15.192-15.192-15.192c-8.39,0-15.192,6.802-15.192,15.192
	c0,0.855,0.088,1.688,0.224,2.505h6.396c-0.231-0.795-0.362-1.635-0.362-2.505c0-4.934,4.001-8.934,8.935-8.934
	c4.935,0,8.935,4,8.935,8.934c0,4.864-3.887,8.811-8.723,8.925v-0.075h-1.387H131.57H32.016v6.344h112.098v-0.012
	C152.406,101.729,159.095,94.981,159.095,86.662z"/>
<path fill="#FFFFFF" d="M129.317,113.413v-0.008H66.293v4.352h54.421h7.653h0.95v-0.052c3.317,0.078,5.982,2.785,5.982,6.121
	c0,3.385-2.743,6.129-6.128,6.129c-3.384,0-6.128-2.744-6.128-6.129c0-0.598,0.09-1.173,0.249-1.719h-4.388
	c-0.093,0.561-0.153,1.132-0.153,1.719c0,5.755,4.666,10.421,10.42,10.421c5.756,0,10.421-4.666,10.421-10.421
	C139.593,118.12,135.006,113.492,129.317,113.413z"/>
</svg>
